<svg xmlns="http://www.w3.org/2000/svg" width="1440" height="900" viewBox="0 0 1440 900"><rect width="1440" height="900" fill="#f6f9fd"/><rect x="0" y="0" width="280" height="900" fill="#0f2133"/><text x="40" y="82" font-size="18" font-family="Segoe UI, Microsoft YaHei" fill="#9cc7ff">PARKSPHERE CONSOLE</text><text x="40" y="132" font-size="34" font-family="Segoe UI, Microsoft YaHei" fill="#ffffff" font-weight="700">?????</text><g fill="#ffffff" opacity=".18"><rect x="24" y="186" width="232" height="74" rx="20"/><rect x="24" y="276" width="232" height="74" rx="20"/><rect x="24" y="366" width="232" height="74" rx="20"/><rect x="24" y="456" width="232" height="74" rx="20"/><rect x="24" y="546" width="232" height="74" rx="20"/></g><rect x="320" y="46" width="1080" height="100" rx="28" fill="#ffffff" stroke="#dce8f6"/><text x="360" y="88" font-size="18" font-family="Segoe UI, Microsoft YaHei" fill="#5b6b82">????</text><text x="360" y="126" font-size="36" font-family="Segoe UI, Microsoft YaHei" fill="#0f172a" font-weight="700">????</text><g><rect x="320" y="178" width="338" height="160" rx="28" fill="#ffffff" stroke="#dce8f6"/><rect x="691" y="178" width="338" height="160" rx="28" fill="#ffffff" stroke="#dce8f6"/><rect x="1062" y="178" width="338" height="160" rx="28" fill="#ffffff" stroke="#dce8f6"/></g><text x="352" y="224" font-size="20" font-family="Segoe UI, Microsoft YaHei" fill="#5b6b82">???</text><text x="352" y="292" font-size="60" font-family="Segoe UI, Microsoft YaHei" fill="#0071e3" font-weight="700">12</text><text x="723" y="224" font-size="20" font-family="Segoe UI, Microsoft YaHei" fill="#5b6b82">????</text><text x="723" y="292" font-size="60" font-family="Segoe UI, Microsoft YaHei" fill="#0071e3" font-weight="700">5</text><text x="1094" y="224" font-size="20" font-family="Segoe UI, Microsoft YaHei" fill="#5b6b82">????</text><text x="1094" y="292" font-size="60" font-family="Segoe UI, Microsoft YaHei" fill="#0071e3" font-weight="700">?268</text><rect x="320" y="372" width="1080" height="462" rx="32" fill="#ffffff" stroke="#dce8f6"/><text x="360" y="426" font-size="18" font-family="Segoe UI, Microsoft YaHei" fill="#0071e3">THE COMMAND CENTER</text><text x="360" y="468" font-size="34" font-family="Segoe UI, Microsoft YaHei" fill="#0f172a" font-weight="700">?????????</text><rect x="360" y="510" width="420" height="280" rx="24" fill="#f3f8ff" stroke="#dce8f6"/><rect x="810" y="510" width="255" height="280" rx="24" fill="#f8fbff" stroke="#dce8f6"/><rect x="1095" y="510" width="255" height="280" rx="24" fill="#f8fbff" stroke="#dce8f6"/><g fill="#0071e3"><rect x="400" y="716" width="26" height="46" rx="13"/><rect x="440" y="666" width="26" height="96" rx="13"/><rect x="480" y="688" width="26" height="74" rx="13"/><rect x="520" y="626" width="26" height="136" rx="13"/><rect x="560" y="646" width="26" height="116" rx="13"/><rect x="600" y="576" width="26" height="186" rx="13"/><rect x="640" y="612" width="26" height="150" rx="13"/></g></svg>