<svg xmlns="http://www.w3.org/2000/svg" width="1440" height="900" viewBox="0 0 1440 900"><rect width="1440" height="900" fill="#f6f9fd"/><circle cx="180" cy="120" r="220" fill="#d9ebff" opacity=".6"/><circle cx="1260" cy="120" r="180" fill="#d9ebff" opacity=".45"/><rect x="440" y="130" width="560" height="640" rx="36" fill="#ffffff" stroke="#dce8f6"/><text x="720" y="220" font-size="30" font-family="Segoe UI, Microsoft YaHei" text-anchor="middle" fill="#0f172a" font-weight="700">???????</text><rect x="540" y="270" width="170" height="52" rx="16" fill="#e9f3ff" stroke="#9ac5ff"/><rect x="730" y="270" width="170" height="52" rx="16" fill="#ffffff" stroke="#dce8f6"/><text x="625" y="303" font-size="22" font-family="Segoe UI, Microsoft YaHei" text-anchor="middle" fill="#0071e3">????</text><text x="815" y="303" font-size="22" font-family="Segoe UI, Microsoft YaHei" text-anchor="middle" fill="#5b6b82">??????</text><rect x="520" y="360" width="400" height="62" rx="18" fill="#ffffff" stroke="#dce8f6"/><rect x="520" y="448" width="400" height="62" rx="18" fill="#ffffff" stroke="#dce8f6"/><rect x="520" y="540" width="400" height="72" rx="22" fill="#edf5ff"/><rect x="534" y="554" width="58" height="44" rx="14" fill="#ffffff"/><rect x="520" y="660" width="400" height="62" rx="18" fill="#0071e3"/><text x="720" y="399" font-size="24" font-family="Segoe UI, Microsoft YaHei" fill="#7a8ba3">?? / ???</text><text x="720" y="487" font-size="24" font-family="Segoe UI, Microsoft YaHei" fill="#7a8ba3">????</text><text x="720" y="588" font-size="24" font-family="Segoe UI, Microsoft YaHei" fill="#7a8ba3">????????</text><text x="720" y="699" font-size="24" font-family="Segoe UI, Microsoft YaHei" text-anchor="middle" fill="#ffffff">????</text></svg>