<svg xmlns="http://www.w3.org/2000/svg" width="1440" height="900" viewBox="0 0 1440 900"><rect width="1440" height="900" fill="#f6f9fd"/><rect x="48" y="48" width="1344" height="128" rx="32" fill="#ffffff" stroke="#dce8f6"/><text x="92" y="94" font-size="18" font-family="Segoe UI, Microsoft YaHei" fill="#0071e3">PARKSPHERE USER</text><text x="92" y="144" font-size="36" font-family="Segoe UI, Microsoft YaHei" fill="#0f172a" font-weight="700">??????</text><rect x="48" y="206" width="1344" height="210" rx="32" fill="#ffffff" stroke="#dce8f6"/><text x="92" y="258" font-size="18" font-family="Segoe UI, Microsoft YaHei" fill="#0071e3">????</text><text x="92" y="320" font-size="56" font-family="Segoe UI, Microsoft YaHei" fill="#0071e3" font-weight="700">?A A839Q</text><text x="92" y="360" font-size="24" font-family="Segoe UI, Microsoft YaHei" fill="#5b6b82">????????? ? B-03 ? 2026-04-06 09:12 ??</text><g><rect x="900" y="244" width="150" height="128" rx="24" fill="#f3f8ff" stroke="#dce8f6"/><rect x="1072" y="244" width="150" height="128" rx="24" fill="#f3f8ff" stroke="#dce8f6"/><rect x="1244" y="244" width="100" height="128" rx="24" fill="#f3f8ff" stroke="#dce8f6"/></g><text x="930" y="286" font-size="18" font-family="Segoe UI, Microsoft YaHei" fill="#5b6b82">????</text><text x="930" y="336" font-size="40" font-family="Segoe UI, Microsoft YaHei" fill="#0071e3" font-weight="700">?18</text><text x="1102" y="286" font-size="18" font-family="Segoe UI, Microsoft YaHei" fill="#5b6b82">????</text><text x="1102" y="336" font-size="40" font-family="Segoe UI, Microsoft YaHei" fill="#0071e3" font-weight="700">3h18m</text><text x="1264" y="286" font-size="18" font-family="Segoe UI, Microsoft YaHei" fill="#5b6b82">??</text><text x="1264" y="336" font-size="28" font-family="Segoe UI, Microsoft YaHei" fill="#0071e3" font-weight="700">???</text><g><rect x="48" y="448" width="420" height="140" rx="28" fill="#ffffff" stroke="#dce8f6"/><rect x="510" y="448" width="420" height="140" rx="28" fill="#ffffff" stroke="#dce8f6"/><rect x="972" y="448" width="420" height="140" rx="28" fill="#ffffff" stroke="#dce8f6"/></g><text x="82" y="492" font-size="18" font-family="Segoe UI, Microsoft YaHei" fill="#5b6b82">?????</text><text x="82" y="552" font-size="46" font-family="Segoe UI, Microsoft YaHei" fill="#0071e3" font-weight="700">4 ?</text><text x="544" y="492" font-size="18" font-family="Segoe UI, Microsoft YaHei" fill="#5b6b82">??????</text><text x="544" y="552" font-size="46" font-family="Segoe UI, Microsoft YaHei" fill="#0071e3" font-weight="700">18 ?</text><text x="1006" y="492" font-size="18" font-family="Segoe UI, Microsoft YaHei" fill="#5b6b82">????</text><text x="1006" y="552" font-size="46" font-family="Segoe UI, Microsoft YaHei" fill="#0071e3" font-weight="700">2 ?</text><rect x="48" y="620" width="862" height="232" rx="32" fill="#ffffff" stroke="#dce8f6"/><rect x="940" y="620" width="452" height="232" rx="32" fill="#ffffff" stroke="#dce8f6"/><text x="86" y="668" font-size="18" font-family="Segoe UI, Microsoft YaHei" fill="#0071e3">????</text><text x="86" y="708" font-size="30" font-family="Segoe UI, Microsoft YaHei" fill="#0f172a" font-weight="700">????</text><g fill="#eef5ff"><rect x="86" y="736" width="786" height="40" rx="14"/><rect x="86" y="790" width="786" height="40" rx="14"/></g><text x="978" y="668" font-size="18" font-family="Segoe UI, Microsoft YaHei" fill="#0071e3">????</text><text x="978" y="708" font-size="30" font-family="Segoe UI, Microsoft YaHei" fill="#0f172a" font-weight="700">?????</text><g fill="#f3f8ff" stroke="#dce8f6"><rect x="978" y="736" width="376" height="40" rx="14"/><rect x="978" y="790" width="376" height="40" rx="14"/></g></svg>